<svg width="30" height="30" viewBox="0 0 30 30" fill="none" xmlns="http://www.w3.org/2000/svg">
<rect width="30" height="30" rx="15" fill="#ECEEFE"/>
<mask id="mask0_237_571" style="mask-type:alpha" maskUnits="userSpaceOnUse" x="3" y="3" width="24" height="24">
<rect x="3" y="3" width="24" height="24" fill="#D9D9D9"/>
</mask>
<g mask="url(#mask0_237_571)">
<path d="M15 22.3501C14.6333 22.3501 14.3207 22.2208 14.062 21.9621C13.804 21.7041 13.675 21.3918 13.675 21.0251V16.3001H8.95C8.58333 16.3001 8.271 16.1708 8.013 15.9121C7.75433 15.6541 7.625 15.3418 7.625 14.9751C7.625 14.6084 7.75433 14.2958 8.013 14.0371C8.271 13.7791 8.58333 13.6501 8.95 13.6501H13.675V8.9251C13.675 8.55843 13.804 8.24576 14.062 7.9871C14.3207 7.7291 14.6333 7.6001 15 7.6001C15.3667 7.6001 15.6793 7.7291 15.938 7.9871C16.196 8.24576 16.325 8.55843 16.325 8.9251V13.6501H21.05C21.4167 13.6501 21.7293 13.7791 21.988 14.0371C22.246 14.2958 22.375 14.6084 22.375 14.9751C22.375 15.3418 22.246 15.6541 21.988 15.9121C21.7293 16.1708 21.4167 16.3001 21.05 16.3001H16.325V21.0251C16.325 21.3918 16.196 21.7041 15.938 21.9621C15.6793 22.2208 15.3667 22.3501 15 22.3501Z" fill="#535AF1"/>
</g>
</svg>
