<svg width="30" height="30" viewBox="0 0 30 30" fill="none" xmlns="http://www.w3.org/2000/svg">
<mask id="mask0_237_674" style="mask-type:alpha" maskUnits="userSpaceOnUse" x="0" y="0" width="30" height="30">
<rect y="30" width="30" height="30" transform="rotate(-90 0 30)" fill="#D9D9D9"/>
</mask>
<g mask="url(#mask0_237_674)">
<path d="M17.875 15.8752L14.625 19.1252C14.2292 19.521 13.7762 19.6093 13.2662 19.3902C12.7554 19.1718 12.5 18.7814 12.5 18.2189V11.7814C12.5 11.2189 12.7554 10.8285 13.2662 10.6102C13.7762 10.391 14.2292 10.4793 14.625 10.8752L17.875 14.1252C18 14.2502 18.0937 14.3856 18.1562 14.5314C18.2187 14.6773 18.25 14.8335 18.25 15.0002C18.25 15.1668 18.2187 15.3231 18.1562 15.4689C18.0937 15.6148 18 15.7502 17.875 15.8752Z" fill="black"/>
</g>
</svg>
