<svg width="30" height="30" viewBox="0 0 30 30" fill="none" xmlns="http://www.w3.org/2000/svg">
<mask id="mask0_237_693" style="mask-type:alpha" maskUnits="userSpaceOnUse" x="0" y="0" width="30" height="30">
<rect y="30" width="30" height="30" transform="rotate(-90 0 30)" fill="#D9D9D9"/>
</mask>
<g mask="url(#mask0_237_693)">
<path d="M18.125 16.1564L14.7812 19.5002C14.2604 20.021 13.6667 20.146 13 19.8752C12.3333 19.6043 12 19.1043 12 18.3752V11.6252C12 10.896 12.3333 10.396 13 10.1252C13.6667 9.85435 14.2604 9.97935 14.7812 10.5002L18.125 13.8439C18.2917 14.0106 18.4112 14.1927 18.4837 14.3902C18.5571 14.5885 18.5937 14.7918 18.5937 15.0002C18.5937 15.2085 18.5571 15.4118 18.4837 15.6102C18.4112 15.8077 18.2917 15.9898 18.125 16.1564Z" fill="#535AF1"/>
</g>
</svg>
