<svg width="25" height="25" viewBox="0 0 25 25" fill="none" xmlns="http://www.w3.org/2000/svg">
<g clip-path="url(#clip0_726_11925)">
<rect x="25" width="25" height="25" rx="12.5" transform="rotate(90 25 0)" fill="#ECEEFE"/>
<mask id="mask0_726_11925" style="mask-type:alpha" maskUnits="userSpaceOnUse" x="0" y="0" width="25" height="25">
<rect x="25" width="25" height="25" transform="rotate(90 25 0)" fill="#444DF2"/>
</mask>
<g mask="url(#mask0_726_11925)">
<path d="M8.22933 12.8775C8.22933 12.7039 8.26405 12.5345 8.3335 12.3692C8.40294 12.2046 8.50711 12.0529 8.646 11.914L13.4897 7.07025C13.7502 6.80984 14.0759 6.6838 14.4668 6.69213C14.8571 6.70116 15.1825 6.83588 15.4429 7.0963C15.7033 7.35671 15.8335 7.68241 15.8335 8.07338C15.8335 8.46366 15.7033 8.789 15.4429 9.04942L11.5887 12.8775L15.4429 16.7317C15.7033 16.9921 15.8335 17.3175 15.8335 17.7078C15.8335 18.0987 15.7033 18.4244 15.4429 18.6848C15.1825 18.9453 14.8571 19.0755 14.4668 19.0755C14.0759 19.0755 13.7502 18.9453 13.4897 18.6848L8.646 13.8411C8.50711 13.7022 8.40294 13.5505 8.3335 13.3859C8.26405 13.2206 8.22933 13.0512 8.22933 12.8775Z" fill="#535AF1"/>
</g>
</g>
<defs>
<clipPath id="clip0_726_11925">
<rect x="25" width="25" height="25" rx="12.5" transform="rotate(90 25 0)" fill="white"/>
</clipPath>
</defs>
</svg>
