<svg width="24" height="24" viewBox="0 0 24 24" fill="none" xmlns="http://www.w3.org/2000/svg">
<mask id="mask0_842_12277" style="mask-type:alpha" maskUnits="userSpaceOnUse" x="0" y="0" width="24" height="24">
<rect width="24" height="24" fill="#D9D9D9"/>
</mask>
<g mask="url(#mask0_842_12277)">
<path d="M4.6251 19.4001H6.4751L14.9751 10.9001L13.1251 9.0501L4.6251 17.5501V19.4001ZM20.1501 9.4501L14.5501 3.8501L15.9001 2.5001C16.4168 1.98343 17.0461 1.7251 17.7881 1.7251C18.5294 1.7251 19.1584 1.98343 19.6751 2.5001L21.5251 4.3751C22.0418 4.89176 22.3001 5.50843 22.3001 6.2251C22.3001 6.94176 22.0418 7.55843 21.5251 8.0751L20.1501 9.4501ZM3.2751 22.0501C2.90843 22.0501 2.6001 21.9251 2.3501 21.6751C2.1001 21.4251 1.9751 21.1168 1.9751 20.7501V16.9751C1.9751 16.7918 2.0041 16.6251 2.0621 16.4751C2.12076 16.3251 2.21676 16.1834 2.3501 16.0501L13.1251 5.2751L18.7251 10.8751L7.9751 21.6751C7.84176 21.8084 7.7001 21.9041 7.5501 21.9621C7.4001 22.0208 7.23343 22.0501 7.0501 22.0501H3.2751Z" fill="#535AF1"/>
</g>
</svg>
