<svg width="41" height="40" viewBox="0 0 41 40" fill="none" xmlns="http://www.w3.org/2000/svg">
<mask id="mask0_693_14360" style="mask-type:alpha" maskUnits="userSpaceOnUse" x="8" y="8" width="25" height="24">
<path d="M8.77026 8H32.7703V32H8.77026V8Z" fill="#D9D9D9"/>
</mask>
<g mask="url(#mask0_693_14360)">
<path d="M13.6202 32.5C12.8869 32.5 12.2619 32.2416 11.7452 31.725C11.2285 31.2083 10.9702 30.5833 10.9702 29.85V15.55C10.9702 14.8166 11.2285 14.1916 11.7452 13.675C12.2619 13.1583 12.8869 12.9 13.6202 12.9H23.0452L20.3952 15.55H13.6202V29.85H27.9202V23.075L30.5702 20.425V29.85C30.5702 30.5833 30.3119 31.2083 29.7952 31.725C29.2785 32.2416 28.6535 32.5 27.9202 32.5H13.6202ZM24.5202 14.225L26.4202 16.125L20.0952 22.4V23.375H21.0452L27.3702 17.075L29.2202 18.95L22.9452 25.25C22.6952 25.5 22.4075 25.6916 22.0822 25.825C21.7575 25.9583 21.4202 26.025 21.0702 26.025H18.7702C18.4035 26.025 18.0909 25.8956 17.8322 25.637C17.5742 25.379 17.4452 25.0666 17.4452 24.7V22.4C17.4452 22.05 17.5119 21.7123 17.6452 21.387C17.7785 21.0623 17.9702 20.775 18.2202 20.525L24.5202 14.225ZM29.2202 18.95L24.5202 14.225L26.9952 11.75C27.5285 11.2166 28.1619 10.95 28.8952 10.95C29.6285 10.95 30.2535 11.2166 30.7702 11.75L31.7202 12.725C32.2369 13.2583 32.4952 13.8833 32.4952 14.6C32.4952 15.3166 32.2369 15.9333 31.7202 16.45L29.2202 18.95Z" fill="white"/>
</g>
</svg>
