<svg width="41" height="40" viewBox="0 0 41 40" fill="none" xmlns="http://www.w3.org/2000/svg">
<mask id="mask0_693_14353" style="mask-type:alpha" maskUnits="userSpaceOnUse" x="8" y="8" width="25" height="24">
<path d="M8.77026 8H32.7703V32H8.77026V8Z" fill="#D9D9D9"/>
</mask>
<g mask="url(#mask0_693_14353)">
<path d="M13.7703 31.7C13.2203 31.7 12.7494 31.5042 12.3578 31.1125C11.9661 30.7209 11.7703 30.25 11.7703 29.7V15.7C11.7703 15.15 11.9661 14.6792 12.3578 14.2875C12.7494 13.8959 13.2203 13.7 13.7703 13.7H22.6953L20.6953 15.7H13.7703V29.7H27.7703V22.75L29.7703 20.75V29.7C29.7703 30.25 29.5744 30.7209 29.1828 31.1125C28.7911 31.5042 28.3203 31.7 27.7703 31.7H13.7703ZM24.9453 14.275L26.3703 15.675L19.7703 22.275V23.7H21.1703L27.7953 17.075L29.2203 18.475L22.5953 25.1C22.4119 25.2834 22.1994 25.4292 21.9578 25.5375C21.7161 25.6459 21.4619 25.7 21.1953 25.7H18.7703C18.4869 25.7 18.2494 25.6042 18.0578 25.4125C17.8661 25.2209 17.7703 24.9834 17.7703 24.7V22.275C17.7703 22.0084 17.8203 21.7542 17.9203 21.5125C18.0203 21.2709 18.1619 21.0584 18.3453 20.875L24.9453 14.275ZM29.2203 18.475L24.9453 14.275L27.4453 11.775C27.8453 11.375 28.3244 11.175 28.8828 11.175C29.4411 11.175 29.9119 11.375 30.2953 11.775L31.6953 13.2C32.0786 13.5834 32.2703 14.05 32.2703 14.6C32.2703 15.15 32.0786 15.6167 31.6953 16L29.2203 18.475Z" fill="white"/>
</g>
</svg>
