<svg width="40" height="40" viewBox="0 0 40 40" fill="none" xmlns="http://www.w3.org/2000/svg">
<rect width="40" height="40" rx="20" fill="#ECEEFE"/>
<path d="M18.3376 10L20.0043 13.3333L21.671 10H18.3376ZM24.3043 10.3333L24.071 14.0667L27.171 12L24.3043 10.3333ZM12.8376 12L15.971 14.0667L15.7376 10.3333L12.8376 12Z" fill="#4AA9FF"/>
<path d="M16.1377 30H12.2043V25.7L16.8043 26.7666C15.7043 27.9333 16.1377 30 16.1377 30Z" fill="#EBA352"/>
<path d="M15.771 30H11.371C11.371 30 11.4377 27.8667 10.7043 26.0333L16.2043 26.8333C15.571 28.4667 15.771 30 15.771 30ZM15.3377 24.1333H17.0043V16.7333C17.0043 16.2333 16.6377 15.8333 16.171 15.8333C15.7043 15.8333 15.3377 16.2333 15.3377 16.7667V24.1333ZM13.371 24.1333H15.3377V16.1C15.3377 15.5 14.9043 15 14.3377 15C13.8043 15 13.3377 15.5 13.3377 16.1V24.1333H13.371Z" fill="#FFDD67"/>
<path d="M11.6712 24.1334H13.4045V16.5668C13.4045 16.0334 13.0045 15.6001 12.5378 15.6001C12.0712 15.6001 11.6712 16.0334 11.6712 16.5668V24.1334ZM10.8712 16.7334C10.4378 16.7334 10.1045 17.1334 10.1045 17.6334V24.1334H11.6712V17.6334C11.6712 17.1334 11.3045 16.7334 10.8712 16.7334Z" fill="#FFDD67"/>
<path d="M16.1711 15.8H16.0045C16.4045 15.8667 16.7045 16.2667 16.7045 16.7V24.1333H17.0045V16.7333C17.0045 16.2333 16.6378 15.8 16.1711 15.8ZM14.3711 15C14.3045 15 14.2711 15 14.2378 15.0333C14.7045 15.1 15.0711 15.5667 15.0711 16.1V21.4667L15.3711 21.8V16.1C15.3378 15.5 14.9045 15 14.3711 15ZM12.5378 15.6H12.4045C12.8045 15.6667 13.1045 16.0667 13.1045 16.5333V21.4333L13.4045 21.7667V16.5667C13.3711 16.0333 13.0045 15.6 12.5378 15.6ZM10.8711 16.7333C10.8045 16.7333 10.7711 16.7333 10.7378 16.7667C11.1045 16.8333 11.3711 17.2 11.3711 17.6333V21.4667L11.6711 21.8V17.6333C11.6711 17.1333 11.3045 16.7333 10.8711 16.7333Z" fill="#EBA352"/>
<path d="M19.8043 20.7333C19.3043 20.1666 18.3043 20.4333 17.6043 21.8999C17.1043 22.8999 16.971 22.6999 16.7043 22.7666V21.8666C16.7043 21.8666 10.071 21.4333 10.071 22.4333C10.071 22.4333 9.771 24.8999 10.4043 26.4333C11.371 28.7333 16.3043 29.3333 17.8377 25.4333C18.1377 24.6666 18.571 23.8333 18.9043 22.9999C19.3377 21.9999 20.371 21.3999 19.8043 20.7333Z" fill="#FFDD67"/>
<path d="M19.471 20.5C20.5377 21.3 18.571 22.8333 17.6377 25.2C16.3043 28.6 12.4043 28.6 10.771 27.0333C12.271 28.8 16.4377 29.1333 17.8377 25.4333C18.771 23.0333 21.0377 21.2 19.471 20.5Z" fill="#EBA352"/>
<path d="M17.0042 22.7334C15.7042 22.2667 12.9708 23.1667 13.3375 25.7667C13.3375 23.3334 15.5042 22.7667 16.7042 22.7667C16.8708 22.7667 17.0042 22.7334 17.0042 22.7334ZM23.8708 30H27.8042V25.7L23.2042 26.7667C24.3042 27.9334 23.8708 30 23.8708 30Z" fill="#EBA352"/>
<path d="M24.2377 30H28.6377C28.6377 30 28.5711 27.8667 29.3044 26.0333L23.8044 26.8333C24.4377 28.4667 24.2377 30 24.2377 30ZM24.6711 24.1333H23.0044V16.7333C23.0044 16.2333 23.3711 15.8333 23.8377 15.8333C24.3044 15.8333 24.6711 16.2333 24.6711 16.7667V24.1333ZM26.6377 24.1333H24.6711V16.1C24.6711 15.5 25.1044 15 25.6711 15C26.2044 15 26.6711 15.5 26.6711 16.1V24.1333H26.6377Z" fill="#FFDD67"/>
<path d="M28.3376 24.1334H26.6042V16.5668C26.6042 16.0334 27.0042 15.6001 27.4709 15.6001C27.9376 15.6001 28.3376 16.0334 28.3376 16.5668V24.1334ZM29.1376 16.7334C29.5709 16.7334 29.9042 17.1334 29.9042 17.6334V24.1334H28.3376V17.6334C28.3376 17.1334 28.7042 16.7334 29.1376 16.7334Z" fill="#FFDD67"/>
<path d="M23.8377 15.8H24.0044C23.6044 15.8667 23.3044 16.2667 23.3044 16.7V24.1333H23.0044V16.7333C23.0044 16.2333 23.3711 15.8 23.8377 15.8ZM25.6377 15C25.7044 15 25.7377 15 25.7711 15.0333C25.3044 15.1 24.9377 15.5667 24.9377 16.1V21.4667L24.6377 21.8V16.1C24.6711 15.5 25.1044 15 25.6377 15ZM27.4711 15.6H27.6044C27.2044 15.6667 26.9044 16.0667 26.9044 16.5333V21.4333L26.6044 21.7667V16.5667C26.6377 16.0333 27.0044 15.6 27.4711 15.6ZM29.1377 16.7333C29.2044 16.7333 29.2377 16.7333 29.2711 16.7667C28.9044 16.8333 28.6377 17.2 28.6377 17.6333V21.4667L28.3377 21.8V17.6333C28.3377 17.1333 28.7044 16.7333 29.1377 16.7333Z" fill="#EBA352"/>
<path d="M20.2043 20.7333C20.7043 20.1666 21.7043 20.4333 22.4043 21.8999C22.9043 22.8999 23.0376 22.6999 23.3043 22.7666V21.8666C23.3043 21.8666 29.9376 21.4333 29.9376 22.4333C29.9376 22.4333 30.2376 24.8999 29.6043 26.4333C28.6376 28.7333 23.7043 29.3333 22.171 25.4333C21.871 24.6666 21.4376 23.8333 21.1043 22.9999C20.671 21.9999 19.6376 21.3999 20.2043 20.7333Z" fill="#FFDD67"/>
<path d="M20.5377 20.5C19.471 21.3 21.4377 22.8333 22.371 25.2C23.7043 28.6 27.6043 28.6 29.2377 27.0333C27.7377 28.8 23.571 29.1333 22.171 25.4333C21.2377 23.0333 18.971 21.2 20.5377 20.5Z" fill="#EBA352"/>
<path d="M23.0044 22.7334C24.3044 22.2667 27.0377 23.1667 26.6711 25.7667C26.6711 23.3334 24.5044 22.7667 23.3044 22.7667C23.1377 22.7667 23.0044 22.7334 23.0044 22.7334Z" fill="#EBA352"/>
</svg>
