<svg width="24" height="24" viewBox="0 0 24 24" fill="none" xmlns="http://www.w3.org/2000/svg">
<mask id="mask0_813_12110" style="mask-type:alpha" maskUnits="userSpaceOnUse" x="0" y="0" width="24" height="24">
<rect width="24" height="24" fill="#D9D9D9"/>
</mask>
<g mask="url(#mask0_813_12110)">
<path d="M19.3002 14.2001C18.9335 14.2001 18.6212 14.0708 18.3632 13.8121C18.1045 13.5541 17.9752 13.2418 17.9752 12.8751V11.1501H16.2502C15.8835 11.1501 15.5709 11.0208 15.3122 10.7621C15.0542 10.5041 14.9252 10.1918 14.9252 9.8251C14.9252 9.45843 15.0542 9.14576 15.3122 8.8871C15.5709 8.6291 15.8835 8.5001 16.2502 8.5001H17.9752V6.7751C17.9752 6.40843 18.1045 6.09576 18.3632 5.8371C18.6212 5.5791 18.9335 5.4501 19.3002 5.4501C19.6669 5.4501 19.9795 5.5791 20.2382 5.8371C20.4962 6.09576 20.6252 6.40843 20.6252 6.7751V8.5001H22.3502C22.7169 8.5001 23.0295 8.6291 23.2882 8.8871C23.5462 9.14576 23.6752 9.45843 23.6752 9.8251C23.6752 10.1918 23.5462 10.5041 23.2882 10.7621C23.0295 11.0208 22.7169 11.1501 22.3502 11.1501H20.6252V12.8751C20.6252 13.2418 20.4962 13.5541 20.2382 13.8121C19.9795 14.0708 19.6669 14.2001 19.3002 14.2001ZM9.0752 11.7001C7.80853 11.7001 6.73353 11.2584 5.8502 10.3751C4.96686 9.49176 4.5252 8.41676 4.5252 7.1501C4.5252 5.88343 4.96686 4.80843 5.8502 3.9251C6.73353 3.04176 7.80853 2.6001 9.0752 2.6001C10.3419 2.6001 11.4169 3.04176 12.3002 3.9251C13.1835 4.80843 13.6252 5.88343 13.6252 7.1501C13.6252 8.41676 13.1835 9.49176 12.3002 10.3751C11.4169 11.2584 10.3419 11.7001 9.0752 11.7001ZM1.6252 21.5251C1.25853 21.5251 0.950195 21.4001 0.700195 21.1501C0.450195 20.9001 0.325195 20.5918 0.325195 20.2251V17.9501C0.325195 17.2668 0.487529 16.6501 0.812195 16.1001C1.13753 15.5501 1.5752 15.1334 2.1252 14.8501C3.2252 14.2834 4.35853 13.8584 5.5252 13.5751C6.69186 13.2918 7.8752 13.1501 9.0752 13.1501C10.2752 13.1501 11.4585 13.2918 12.6252 13.5751C13.7919 13.8584 14.9252 14.2834 16.0252 14.8501C16.5752 15.1334 17.0125 15.5501 17.3372 16.1001C17.6625 16.6501 17.8252 17.2668 17.8252 17.9501V20.2251C17.8252 20.5918 17.7002 20.9001 17.4502 21.1501C17.2002 21.4001 16.8919 21.5251 16.5252 21.5251H1.6252ZM2.9752 18.8751H15.1752V17.9501C15.1752 17.7668 15.1462 17.6168 15.0882 17.5001C15.0295 17.3834 14.9502 17.3001 14.8502 17.2501C13.9335 16.8001 12.9795 16.4461 11.9882 16.1881C10.9962 15.9294 10.0252 15.8001 9.0752 15.8001C8.1252 15.8001 7.1542 15.9294 6.1622 16.1881C5.17086 16.4461 4.21686 16.8001 3.3002 17.2501C3.2002 17.3001 3.12086 17.3834 3.0622 17.5001C3.0042 17.6168 2.9752 17.7668 2.9752 17.9501V18.8751ZM9.0752 9.0501C9.60853 9.0501 10.0585 8.86676 10.4252 8.5001C10.7919 8.13343 10.9752 7.68343 10.9752 7.1501C10.9752 6.61676 10.7919 6.16676 10.4252 5.8001C10.0585 5.43343 9.60853 5.2501 9.0752 5.2501C8.54186 5.2501 8.09186 5.43343 7.7252 5.8001C7.35853 6.16676 7.1752 6.61676 7.1752 7.1501C7.1752 7.68343 7.35853 8.13343 7.7252 8.5001C8.09186 8.86676 8.54186 9.0501 9.0752 9.0501Z" fill="#535AF1"/>
</g>
</svg>
