<svg width="40" height="41" viewBox="0 0 40 41" fill="none" xmlns="http://www.w3.org/2000/svg">
<mask id="mask0_1817_20387" style="mask-type:alpha" maskUnits="userSpaceOnUse" x="8" y="8" width="24" height="25">
<rect x="8" y="8.5" width="24" height="24" fill="#D9D9D9"/>
</mask>
<g mask="url(#mask0_1817_20387)">
<path d="M23.5 19.5C23.9333 19.5 24.2917 19.3583 24.575 19.075C24.8583 18.7917 25 18.4333 25 18C25 17.5667 24.8583 17.2083 24.575 16.925C24.2917 16.6417 23.9333 16.5 23.5 16.5C23.0667 16.5 22.7083 16.6417 22.425 16.925C22.1417 17.2083 22 17.5667 22 18C22 18.4333 22.1417 18.7917 22.425 19.075C22.7083 19.3583 23.0667 19.5 23.5 19.5ZM16.5 19.5C16.9333 19.5 17.2917 19.3583 17.575 19.075C17.8583 18.7917 18 18.4333 18 18C18 17.5667 17.8583 17.2083 17.575 16.925C17.2917 16.6417 16.9333 16.5 16.5 16.5C16.0667 16.5 15.7083 16.6417 15.425 16.925C15.1417 17.2083 15 17.5667 15 18C15 18.4333 15.1417 18.7917 15.425 19.075C15.7083 19.3583 16.0667 19.5 16.5 19.5ZM20 26C20.95 26 21.8167 25.7877 22.6 25.363C23.3833 24.9377 23.9917 24.4 24.425 23.75C24.625 23.45 24.6543 23.1667 24.513 22.9C24.371 22.6333 24.15 22.5 23.85 22.5C23.7333 22.5 23.6167 22.5333 23.5 22.6C23.3833 22.6667 23.2917 22.75 23.225 22.85C22.8583 23.35 22.4 23.75 21.85 24.05C21.3 24.35 20.6833 24.5 20 24.5C19.3167 24.5 18.7 24.35 18.15 24.05C17.6 23.75 17.1417 23.35 16.775 22.85C16.7083 22.75 16.6127 22.6667 16.488 22.6C16.3627 22.5333 16.2417 22.5 16.125 22.5C15.8417 22.5 15.6293 22.629 15.488 22.887C15.346 23.1457 15.3667 23.4167 15.55 23.7C16 24.3833 16.6167 24.9377 17.4 25.363C18.1833 25.7877 19.05 26 20 26ZM20 30.5C18.6167 30.5 17.3167 30.2373 16.1 29.712C14.8833 29.1873 13.825 28.475 12.925 27.575C12.025 26.675 11.3127 25.6167 10.788 24.4C10.2627 23.1833 10 21.8833 10 20.5C10 19.1167 10.2627 17.8167 10.788 16.6C11.3127 15.3833 12.025 14.325 12.925 13.425C13.825 12.525 14.8833 11.8123 16.1 11.287C17.3167 10.7623 18.6167 10.5 20 10.5C21.3833 10.5 22.6833 10.7623 23.9 11.287C25.1167 11.8123 26.175 12.525 27.075 13.425C27.975 14.325 28.6873 15.3833 29.212 16.6C29.7373 17.8167 30 19.1167 30 20.5C30 21.8833 29.7373 23.1833 29.212 24.4C28.6873 25.6167 27.975 26.675 27.075 27.575C26.175 28.475 25.1167 29.1873 23.9 29.712C22.6833 30.2373 21.3833 30.5 20 30.5ZM20 28.5C22.2167 28.5 24.1043 27.721 25.663 26.163C27.221 24.6043 28 22.7167 28 20.5C28 18.2833 27.221 16.3957 25.663 14.837C24.1043 13.279 22.2167 12.5 20 12.5C17.7833 12.5 15.896 13.279 14.338 14.837C12.7793 16.3957 12 18.2833 12 20.5C12 22.7167 12.7793 24.6043 14.338 26.163C15.896 27.721 17.7833 28.5 20 28.5Z" fill="#686868"/>
</g>
</svg>
