<svg width="40" height="41" viewBox="0 0 40 41" fill="none" xmlns="http://www.w3.org/2000/svg">
<rect y="0.5" width="40" height="40" rx="20" fill="#ECEEFE"/>
<mask id="mask0_1817_20425" style="mask-type:alpha" maskUnits="userSpaceOnUse" x="8" y="8" width="24" height="25">
<rect x="8" y="8.5" width="24" height="24" fill="#D9D9D9"/>
</mask>
<g mask="url(#mask0_1817_20425)">
<path d="M23.7 19.7C24.2 19.7 24.6166 19.5333 24.95 19.2C25.2833 18.8666 25.45 18.45 25.45 17.95C25.45 17.45 25.2833 17.0333 24.95 16.7C24.6166 16.3666 24.2 16.2 23.7 16.2C23.2 16.2 22.7833 16.3666 22.45 16.7C22.1166 17.0333 21.95 17.45 21.95 17.95C21.95 18.45 22.1166 18.8666 22.45 19.2C22.7833 19.5333 23.2 19.7 23.7 19.7ZM16.3 19.7C16.8 19.7 17.2166 19.5333 17.55 19.2C17.8833 18.8666 18.05 18.45 18.05 17.95C18.05 17.45 17.8833 17.0333 17.55 16.7C17.2166 16.3666 16.8 16.2 16.3 16.2C15.8 16.2 15.3833 16.3666 15.05 16.7C14.7166 17.0333 14.55 17.45 14.55 17.95C14.55 18.45 14.7166 18.8666 15.05 19.2C15.3833 19.5333 15.8 19.7 16.3 19.7ZM20 26.5C21.1 26.5 22.071 26.254 22.913 25.7619C23.7543 25.2706 24.4 24.6833 24.85 24C25.0833 23.6333 25.1043 23.3 24.913 23C24.721 22.7 24.4583 22.55 24.125 22.55C23.875 22.55 23.6793 22.6 23.538 22.7C23.396 22.8 23.2583 22.9333 23.125 23.1C22.7583 23.55 22.3083 23.9126 21.775 24.188C21.2416 24.4626 20.65 24.6 20 24.6C19.35 24.6 18.7583 24.4626 18.225 24.188C17.6916 23.9126 17.2416 23.55 16.875 23.1C16.7416 22.9333 16.6043 22.8 16.463 22.7C16.321 22.6 16.125 22.55 15.875 22.55C15.525 22.55 15.2626 22.7123 15.088 23.037C14.9126 23.3623 14.9583 23.725 15.225 24.125C15.6416 24.7416 16.2666 25.2916 17.1 25.775C17.9333 26.2583 18.9 26.5 20 26.5ZM20 31.2999C18.5 31.2999 17.0956 31.0166 15.787 30.45C14.479 29.8833 13.3376 29.1126 12.363 28.138C11.3876 27.1626 10.6166 26.0206 10.05 24.712C9.48328 23.404 9.19995 22 9.19995 20.5C9.19995 19 9.48328 17.5916 10.05 16.275C10.6166 14.9583 11.3876 13.8126 12.363 12.838C13.3376 11.8626 14.479 11.0956 15.787 10.537C17.0956 9.97895 18.5 9.69995 20 9.69995C21.5 9.69995 22.9083 9.97895 24.225 10.537C25.5416 11.0956 26.6876 11.8626 27.663 12.838C28.6376 13.8126 29.4039 14.9583 29.962 16.275C30.5206 17.5916 30.7999 19 30.7999 20.5C30.7999 22 30.5206 23.404 29.962 24.712C29.4039 26.0206 28.6376 27.1626 27.663 28.138C26.6876 29.1126 25.5416 29.8833 24.225 30.45C22.9083 31.0166 21.5 31.2999 20 31.2999ZM20 28.65C22.2666 28.65 24.1916 27.8583 25.775 26.275C27.3583 24.6916 28.15 22.7666 28.15 20.5C28.15 18.2333 27.3583 16.3083 25.775 14.725C24.1916 13.1416 22.2666 12.35 20 12.35C17.7333 12.35 15.8083 13.1416 14.225 14.725C12.6416 16.3083 11.85 18.2333 11.85 20.5C11.85 22.7666 12.6416 24.6916 14.225 26.275C15.8083 27.8583 17.7333 28.65 20 28.65Z" fill="#535AF1"/>
</g>
</svg>
