<svg width="40" height="40" viewBox="0 0 40 40" fill="none" xmlns="http://www.w3.org/2000/svg">
<rect width="40" height="40" rx="20" fill="#ECEEFE"/>
<mask id="mask0_1817_17646" style="mask-type:alpha" maskUnits="userSpaceOnUse" x="8" y="8" width="24" height="24">
<rect x="8" y="8" width="24" height="24" fill="#D9D9D9"/>
</mask>
<g mask="url(#mask0_1817_17646)">
<path d="M19.9959 29.25C19.3486 29.25 18.7957 29.0195 18.3374 28.5585C17.8791 28.0975 17.6499 27.5434 17.6499 26.896C17.6499 26.2487 17.8804 25.6958 18.3414 25.2375C18.8024 24.7792 19.3565 24.55 20.0039 24.55C20.6512 24.55 21.2041 24.7805 21.6624 25.2415C22.1207 25.7025 22.3499 26.2566 22.3499 26.904C22.3499 27.5513 22.1194 28.1042 21.6584 28.5625C21.1974 29.0208 20.6433 29.25 19.9959 29.25ZM19.9959 22.35C19.3486 22.35 18.7957 22.1195 18.3374 21.6585C17.8791 21.1975 17.6499 20.6434 17.6499 19.996C17.6499 19.3487 17.8804 18.7958 18.3414 18.3375C18.8024 17.8792 19.3565 17.65 20.0039 17.65C20.6512 17.65 21.2041 17.8805 21.6624 18.3415C22.1207 18.8025 22.3499 19.3566 22.3499 20.004C22.3499 20.6513 22.1194 21.2042 21.6584 21.6625C21.1974 22.1208 20.6433 22.35 19.9959 22.35ZM19.9959 15.45C19.3486 15.45 18.7957 15.2195 18.3374 14.7585C17.8791 14.2975 17.6499 13.7434 17.6499 13.096C17.6499 12.4487 17.8804 11.8958 18.3414 11.4375C18.8024 10.9792 19.3565 10.75 20.0039 10.75C20.6512 10.75 21.2041 10.9805 21.6624 11.4415C22.1207 11.9025 22.3499 12.4566 22.3499 13.104C22.3499 13.7513 22.1194 14.3042 21.6584 14.7625C21.1974 15.2208 20.6433 15.45 19.9959 15.45Z" fill="#535AF1"/>
</g>
</svg>
