<svg width="24" height="24" viewBox="0 0 24 24" fill="none" xmlns="http://www.w3.org/2000/svg">
<mask id="mask0_813_12084" style="mask-type:alpha" maskUnits="userSpaceOnUse" x="0" y="0" width="24" height="24">
<rect width="24" height="24" fill="#D9D9D9"/>
</mask>
<g mask="url(#mask0_813_12084)">
<path d="M7.22504 20.3251C6.7917 20.3251 6.45004 20.1624 6.20004 19.837C5.95004 19.5124 5.87504 19.1417 5.97504 18.725L6.57504 16.325H4.77504C4.34171 16.325 3.9917 16.1584 3.72504 15.825C3.45837 15.4917 3.38337 15.1084 3.50004 14.675C3.58337 14.3917 3.7417 14.154 3.97504 13.962C4.20837 13.7707 4.47504 13.675 4.77504 13.675H7.25004L8.07504 10.325H5.77504C5.3417 10.325 4.9917 10.1584 4.72504 9.82505C4.45837 9.49171 4.38337 9.10838 4.50004 8.67505C4.58337 8.39172 4.7417 8.15438 4.97504 7.96305C5.20837 7.77105 5.47504 7.67505 5.77504 7.67505H8.75004L9.50004 4.65005C9.58337 4.36672 9.74171 4.13338 9.97504 3.95005C10.2084 3.76672 10.475 3.67505 10.775 3.67505C11.2084 3.67505 11.55 3.83738 11.8 4.16205C12.05 4.48738 12.125 4.85838 12.025 5.27505L11.425 7.67505H14.75L15.5 4.65005C15.5834 4.36672 15.7417 4.13338 15.975 3.95005C16.2084 3.76672 16.475 3.67505 16.775 3.67505C17.2084 3.67505 17.55 3.83738 17.8 4.16205C18.05 4.48738 18.125 4.85838 18.025 5.27505L17.425 7.67505H19.225C19.6584 7.67505 20.0084 7.84172 20.275 8.17505C20.5417 8.50838 20.6167 8.89172 20.5 9.32505C20.4167 9.60838 20.2584 9.84572 20.025 10.037C19.7917 10.229 19.525 10.325 19.225 10.325H16.75L15.925 13.675H18.225C18.6584 13.675 19.0084 13.8417 19.275 14.175C19.5417 14.5084 19.6167 14.8917 19.5 15.325C19.4167 15.6084 19.2584 15.846 19.025 16.038C18.7917 16.2294 18.525 16.325 18.225 16.325H15.25L14.5 19.35C14.4167 19.6334 14.2584 19.8667 14.025 20.05C13.7917 20.2334 13.525 20.3251 13.225 20.3251C12.7917 20.3251 12.45 20.1624 12.2 19.837C11.95 19.5124 11.875 19.1417 11.975 18.725L12.575 16.325H9.25004L8.50004 19.35C8.4167 19.6334 8.25837 19.8667 8.02504 20.05C7.7917 20.2334 7.52504 20.3251 7.22504 20.3251ZM9.92504 13.675H13.25L14.075 10.325H10.75L9.92504 13.675Z" fill="#535AF1"/>
</g>
</svg>
